<svg id="svg" version="1.1" xmlns="http://www.w3.org/2000/svg" xmlns:xlink="http://www.w3.org/1999/xlink" width="400" height="86.46822883681655" viewBox="0, 0, 400,86.46822883681655"><g id="svgg"><path id="path0" d="M252.000 42.833 L 252.000 66.167 256.000 66.167 L 260.000 66.167 260.000 42.833 L 260.000 19.500 256.000 19.500 L 252.000 19.500 252.000 42.833 M265.333 42.833 L 265.333 66.167 269.333 66.167 L 273.333 66.167 273.336 56.625 C 273.339 46.239,273.381 45.680,274.281 43.836 C 276.502 39.290,283.971 38.309,286.196 42.271 C 287.124 43.925,287.161 44.431,287.164 55.792 L 287.167 66.167 291.250 66.167 L 295.333 66.167 295.332 55.625 C 295.331 42.901,295.119 40.976,293.388 38.018 C 289.799 31.885,278.791 31.718,273.980 37.723 L 273.333 38.530 273.333 29.015 L 273.333 19.500 269.333 19.500 L 265.333 19.500 265.333 42.833 M137.539 23.625 L 137.583 27.583 142.042 27.628 L 146.500 27.672 146.500 23.669 L 146.500 19.667 141.997 19.667 L 137.494 19.667 137.539 23.625 M238.333 23.669 L 238.333 27.672 242.792 27.628 L 247.250 27.583 247.295 23.625 L 247.339 19.667 242.836 19.667 L 238.333 19.667 238.333 23.669 M389.667 23.667 L 389.667 27.667 394.167 27.667 L 398.667 27.667 398.667 23.667 L 398.667 19.667 394.167 19.667 L 389.667 19.667 389.667 23.667 M99.250 33.586 C 96.514 34.091,93.914 35.795,92.399 38.077 L 91.750 39.055 91.500 36.652 L 91.250 34.250 87.434 34.205 L 83.619 34.160 83.733 35.205 C 84.025 37.868,84.158 43.842,84.162 54.542 L 84.167 66.167 88.243 66.167 L 92.319 66.167 92.371 55.792 C 92.429 44.124,92.377 44.622,93.757 42.541 C 96.151 38.931,101.934 38.837,103.655 42.381 C 104.450 44.018,104.497 44.781,104.499 55.875 L 104.500 66.167 108.583 66.167 L 112.667 66.167 112.670 56.458 C 112.673 45.815,112.708 45.345,113.656 43.417 C 115.479 39.707,120.930 38.516,123.332 41.302 C 124.762 42.961,124.739 42.748,124.797 55.208 L 124.847 66.167 128.840 66.167 L 132.833 66.167 132.833 55.022 C 132.833 41.785,132.771 41.137,131.210 38.126 C 127.914 31.771,116.906 31.749,112.252 38.089 L 111.445 39.188 110.867 38.092 C 108.937 34.437,104.328 32.649,99.250 33.586 M212.923 33.507 C 205.210 34.721,200.684 41.508,201.052 51.311 C 201.224 55.892,202.311 59.250,204.504 61.972 C 209.382 68.029,220.466 68.284,224.779 62.440 L 225.500 61.463 225.500 63.815 L 225.500 66.167 229.500 66.167 L 233.500 66.167 233.500 50.167 L 233.500 34.167 229.500 34.167 L 225.500 34.167 225.500 36.444 L 225.500 38.721 224.824 37.777 C 222.549 34.600,217.498 32.787,212.923 33.507 M310.507 33.517 C 304.276 34.473,299.795 39.628,298.817 46.963 C 298.144 52.016,299.371 58.459,301.498 61.048 C 301.589 61.159,301.999 61.673,302.409 62.190 C 307.114 68.122,318.732 68.138,322.653 62.218 L 323.167 61.443 323.167 63.805 L 323.167 66.167 327.167 66.167 L 331.167 66.167 331.167 50.167 L 331.167 34.167 327.167 34.167 L 323.167 34.167 323.167 36.440 L 323.167 38.713 322.733 38.065 C 320.471 34.680,315.346 32.774,310.507 33.517 M351.583 33.580 C 348.644 34.126,345.929 35.857,344.515 38.086 C 343.931 39.008,343.935 39.018,343.655 36.208 L 343.451 34.167 339.621 34.167 L 335.791 34.167 335.900 34.852 C 336.198 36.715,336.327 42.377,336.330 53.708 L 336.333 66.167 340.324 66.167 L 344.314 66.167 344.377 56.208 C 344.445 45.500,344.468 45.196,345.356 43.456 C 347.631 38.995,354.231 38.456,356.001 42.586 C 356.618 44.025,356.667 44.986,356.667 55.697 L 356.667 66.167 360.750 66.167 L 364.833 66.167 364.833 56.372 C 364.833 44.672,364.918 44.092,366.948 41.833 C 369.047 39.499,373.504 39.116,375.357 41.110 C 376.900 42.771,376.987 43.558,376.994 55.875 L 377.000 66.167 381.095 66.167 L 385.189 66.167 385.115 54.792 C 385.037 42.807,385.019 42.508,384.223 40.171 C 382.630 35.494,379.671 33.441,374.500 33.424 C 370.072 33.409,366.377 35.205,364.137 38.460 L 363.626 39.202 363.188 38.348 C 361.186 34.442,356.752 32.620,351.583 33.580 M166.250 33.619 C 163.348 34.319,160.469 36.350,159.472 38.401 C 158.949 39.477,158.922 39.427,158.689 36.958 C 158.574 35.744,158.442 34.619,158.395 34.458 C 158.318 34.192,157.988 34.167,154.548 34.167 L 150.786 34.167 150.901 35.208 C 151.169 37.642,151.323 44.797,151.328 55.125 L 151.333 66.167 155.333 66.167 L 159.333 66.167 159.336 56.958 C 159.340 45.601,159.445 44.939,161.591 42.736 C 163.620 40.654,167.574 39.891,170.748 40.969 C 171.952 41.378,171.775 41.912,171.874 37.565 L 171.958 33.881 171.133 33.690 C 170.334 33.506,166.926 33.456,166.250 33.619 M138.000 50.167 L 138.000 66.167 142.000 66.167 L 146.000 66.167 146.000 50.167 L 146.000 34.167 142.000 34.167 L 138.000 34.167 138.000 50.167 M172.667 37.248 L 172.667 40.330 181.175 40.373 L 189.684 40.417 188.717 41.531 C 188.185 42.144,186.963 43.559,186.000 44.676 C 185.037 45.793,183.463 47.610,182.500 48.715 C 180.754 50.718,179.874 51.740,176.524 55.657 C 175.548 56.797,174.634 57.847,174.491 57.990 C 174.349 58.133,173.768 58.781,173.200 59.431 L 172.167 60.612 172.167 63.389 L 172.167 66.167 186.254 66.167 L 200.341 66.167 200.295 63.125 L 200.250 60.083 191.122 60.040 L 181.994 59.997 185.477 55.957 C 187.393 53.735,191.328 49.179,194.222 45.833 L 199.483 39.750 199.492 36.958 L 199.500 34.167 186.083 34.167 L 172.667 34.167 172.667 37.248 M238.667 50.167 L 238.667 66.167 242.667 66.167 L 246.667 66.167 246.667 50.167 L 246.667 34.167 242.667 34.167 L 238.667 34.167 238.667 50.167 M390.167 50.167 L 390.167 66.167 394.167 66.167 L 398.167 66.167 398.167 50.167 L 398.167 34.167 394.167 34.167 L 390.167 34.167 390.167 50.167 M220.129 40.193 C 226.978 42.401,227.421 56.801,220.731 59.765 C 215.569 62.052,210.345 59.089,209.243 53.250 C 207.549 44.269,212.892 37.860,220.129 40.193 M317.500 40.106 C 321.174 41.125,323.058 44.510,323.054 50.083 C 323.048 56.339,320.799 59.676,316.142 60.337 C 309.667 61.255,305.524 55.484,306.830 47.367 C 307.759 41.594,312.133 38.618,317.500 40.106 " stroke="none" fill="#4454fc" fill-rule="evenodd"></path><path id="path1" d="M36.196 3.845 C 33.496 4.376,31.160 6.708,30.579 9.453 C 30.283 10.846,30.208 74.946,30.500 76.519 C 31.799 83.524,41.152 84.680,44.214 78.215 L 44.750 77.083 44.799 43.583 C 44.844 12.772,44.826 9.999,44.571 9.037 C 43.613 5.421,39.896 3.117,36.196 3.845 M10.667 17.115 C 7.603 17.628,5.161 20.057,4.665 23.083 C 4.428 24.533,4.444 62.135,4.682 63.428 C 5.946 70.285,15.235 71.504,18.219 65.204 L 18.750 64.083 18.750 43.167 L 18.750 22.250 18.213 21.152 C 16.833 18.333,13.630 16.619,10.667 17.115 " stroke="none" fill="#f88d23" fill-rule="evenodd"></path><path id="path2" d="M62.583 17.110 C 59.505 17.561,57.088 19.899,56.501 22.993 C 56.215 24.501,56.283 62.317,56.574 63.691 C 58.175 71.243,69.059 71.099,70.499 63.507 C 70.728 62.298,70.728 24.202,70.499 22.993 C 69.787 19.241,66.205 16.579,62.583 17.110 " stroke="none" fill="#04cc74" fill-rule="evenodd"></path><path id="path3" d="M36.250 0.275 C 31.877 0.973,28.297 4.092,27.249 8.116 C 26.890 9.492,26.875 76.779,27.233 78.083 C 30.188 88.853,46.131 88.353,48.151 77.427 C 48.396 76.097,48.410 10.116,48.164 8.814 C 47.174 3.560,41.436 -0.552,36.250 0.275 M38.908 3.846 C 40.905 4.215,42.575 5.331,43.674 7.031 C 44.942 8.993,44.854 6.143,44.799 43.583 L 44.750 77.083 44.214 78.215 C 41.152 84.680,31.799 83.524,30.500 76.519 C 30.208 74.946,30.283 10.846,30.579 9.453 C 31.389 5.631,35.089 3.140,38.908 3.846 M9.152 13.834 C 5.619 14.717,2.769 17.368,1.596 20.864 L 1.167 22.142 1.169 43.113 C 1.171 66.240,1.107 64.800,2.240 67.094 C 5.869 74.443,16.909 74.769,20.889 67.645 C 21.228 67.037,21.692 65.993,21.920 65.324 L 22.333 64.108 22.333 43.242 L 22.333 22.376 21.911 21.083 C 20.824 17.753,18.547 15.330,15.441 14.201 C 14.145 13.730,10.435 13.514,9.152 13.834 M60.591 13.923 C 57.351 14.812,54.512 17.541,53.262 20.970 C 52.724 22.444,52.631 62.795,53.161 64.889 C 55.811 75.368,71.155 75.389,73.833 64.917 C 74.270 63.209,74.357 23.828,73.928 21.833 C 72.693 16.088,66.370 12.338,60.591 13.923 M13.019 17.168 C 15.202 17.575,17.220 19.123,18.213 21.152 L 18.750 22.250 18.750 43.167 L 18.750 64.083 18.219 65.204 C 15.235 71.504,5.946 70.285,4.682 63.428 C 4.444 62.135,4.428 24.533,4.665 23.083 C 5.312 19.134,9.116 16.439,13.019 17.168 M64.852 17.168 C 67.055 17.579,69.036 19.150,70.050 21.290 L 70.583 22.417 70.633 42.750 C 70.688 65.513,70.752 64.210,69.494 66.156 C 66.833 70.273,60.650 70.422,57.718 66.438 C 56.228 64.414,56.320 66.038,56.372 42.833 L 56.417 22.417 56.950 21.290 C 58.415 18.198,61.566 16.554,64.852 17.168 " stroke="none" fill="#fbfbfb" fill-rule="evenodd"></path><path id="path4" d="M68.573 67.208 L 68.083 67.750 68.625 67.260 C 68.923 66.991,69.167 66.748,69.167 66.719 C 69.167 66.590,69.029 66.703,68.573 67.208 " stroke="none" fill="#48d99a" fill-rule="evenodd"></path></g></svg>